<mxfile host="app.diagrams.net" modified="2021-12-08T12:26:37.146Z" agent="5.0 (Windows NT 10.0; Win64; x64) AppleWebKit/537.36 (KHTML, like Gecko) Chrome/95.0.4638.69 Safari/537.36" etag="o15YJLVO-xhJQumGO8La" version="15.9.1" type="github">
  <diagram id="qI387FvGPW3cEtBl7RBP" name="Page-1">
    <mxGraphModel dx="1138" dy="610" grid="1" gridSize="10" guides="1" tooltips="1" connect="1" arrows="1" fold="1" page="1" pageScale="1" pageWidth="827" pageHeight="1169" math="0" shadow="0">
      <root>
        <mxCell id="0" />
        <mxCell id="1" parent="0" />
        <mxCell id="jkj4OKDrNk1HaaFC6fSm-6" style="edgeStyle=orthogonalEdgeStyle;rounded=0;orthogonalLoop=1;jettySize=auto;html=1;exitX=1;exitY=0.5;exitDx=0;exitDy=0;" edge="1" parent="1" source="jkj4OKDrNk1HaaFC6fSm-2" target="jkj4OKDrNk1HaaFC6fSm-3">
          <mxGeometry relative="1" as="geometry" />
        </mxCell>
        <mxCell id="jkj4OKDrNk1HaaFC6fSm-2" value="Пользователь надел шлем" style="ellipse;whiteSpace=wrap;html=1;aspect=fixed;" vertex="1" parent="1">
          <mxGeometry x="50" y="350" width="80" height="80" as="geometry" />
        </mxCell>
        <mxCell id="jkj4OKDrNk1HaaFC6fSm-7" style="edgeStyle=orthogonalEdgeStyle;rounded=0;orthogonalLoop=1;jettySize=auto;html=1;exitX=1;exitY=0.5;exitDx=0;exitDy=0;" edge="1" parent="1" source="jkj4OKDrNk1HaaFC6fSm-3" target="jkj4OKDrNk1HaaFC6fSm-4">
          <mxGeometry relative="1" as="geometry" />
        </mxCell>
        <mxCell id="jkj4OKDrNk1HaaFC6fSm-9" style="edgeStyle=orthogonalEdgeStyle;rounded=0;orthogonalLoop=1;jettySize=auto;html=1;exitX=0.5;exitY=1;exitDx=0;exitDy=0;" edge="1" parent="1" source="jkj4OKDrNk1HaaFC6fSm-3" target="jkj4OKDrNk1HaaFC6fSm-10">
          <mxGeometry relative="1" as="geometry">
            <mxPoint x="249.8571428571429" y="530" as="targetPoint" />
          </mxGeometry>
        </mxCell>
        <mxCell id="jkj4OKDrNk1HaaFC6fSm-3" value="Запуск приложения" style="ellipse;whiteSpace=wrap;html=1;aspect=fixed;" vertex="1" parent="1">
          <mxGeometry x="210" y="350" width="80" height="80" as="geometry" />
        </mxCell>
        <mxCell id="jkj4OKDrNk1HaaFC6fSm-12" style="edgeStyle=orthogonalEdgeStyle;rounded=0;orthogonalLoop=1;jettySize=auto;html=1;exitX=0.5;exitY=1;exitDx=0;exitDy=0;entryX=1;entryY=0.5;entryDx=0;entryDy=0;" edge="1" parent="1" source="jkj4OKDrNk1HaaFC6fSm-4" target="jkj4OKDrNk1HaaFC6fSm-10">
          <mxGeometry relative="1" as="geometry" />
        </mxCell>
        <mxCell id="jkj4OKDrNk1HaaFC6fSm-20" style="edgeStyle=orthogonalEdgeStyle;rounded=0;orthogonalLoop=1;jettySize=auto;html=1;exitX=0.5;exitY=1;exitDx=0;exitDy=0;entryX=0;entryY=0.5;entryDx=0;entryDy=0;" edge="1" parent="1" source="jkj4OKDrNk1HaaFC6fSm-4" target="jkj4OKDrNk1HaaFC6fSm-13">
          <mxGeometry relative="1" as="geometry" />
        </mxCell>
        <mxCell id="jkj4OKDrNk1HaaFC6fSm-4" value="Запуск тренажера" style="ellipse;whiteSpace=wrap;html=1;aspect=fixed;" vertex="1" parent="1">
          <mxGeometry x="370" y="350" width="80" height="80" as="geometry" />
        </mxCell>
        <mxCell id="jkj4OKDrNk1HaaFC6fSm-10" value="Vive Enterprise" style="rounded=0;whiteSpace=wrap;html=1;" vertex="1" parent="1">
          <mxGeometry x="190" y="510" width="120" height="60" as="geometry" />
        </mxCell>
        <mxCell id="jkj4OKDrNk1HaaFC6fSm-13" value="UnityAnalytics" style="rounded=0;whiteSpace=wrap;html=1;" vertex="1" parent="1">
          <mxGeometry x="500" y="510" width="120" height="60" as="geometry" />
        </mxCell>
        <mxCell id="jkj4OKDrNk1HaaFC6fSm-22" style="edgeStyle=orthogonalEdgeStyle;rounded=0;orthogonalLoop=1;jettySize=auto;html=1;exitX=0.5;exitY=1;exitDx=0;exitDy=0;entryX=0.5;entryY=0;entryDx=0;entryDy=0;" edge="1" parent="1" source="jkj4OKDrNk1HaaFC6fSm-16" target="jkj4OKDrNk1HaaFC6fSm-13">
          <mxGeometry relative="1" as="geometry" />
        </mxCell>
        <mxCell id="jkj4OKDrNk1HaaFC6fSm-25" style="edgeStyle=orthogonalEdgeStyle;rounded=0;orthogonalLoop=1;jettySize=auto;html=1;exitX=1;exitY=0.5;exitDx=0;exitDy=0;" edge="1" parent="1" source="jkj4OKDrNk1HaaFC6fSm-16" target="jkj4OKDrNk1HaaFC6fSm-23">
          <mxGeometry relative="1" as="geometry" />
        </mxCell>
        <mxCell id="jkj4OKDrNk1HaaFC6fSm-16" value="Работа в тренажере" style="ellipse;whiteSpace=wrap;html=1;aspect=fixed;" vertex="1" parent="1">
          <mxGeometry x="520" y="350" width="80" height="80" as="geometry" />
        </mxCell>
        <mxCell id="jkj4OKDrNk1HaaFC6fSm-17" value="" style="endArrow=classic;html=1;rounded=0;entryX=0;entryY=0.5;entryDx=0;entryDy=0;" edge="1" parent="1" target="jkj4OKDrNk1HaaFC6fSm-16">
          <mxGeometry width="50" height="50" relative="1" as="geometry">
            <mxPoint x="450" y="390" as="sourcePoint" />
            <mxPoint x="500" y="340" as="targetPoint" />
          </mxGeometry>
        </mxCell>
        <mxCell id="jkj4OKDrNk1HaaFC6fSm-28" style="edgeStyle=orthogonalEdgeStyle;rounded=0;orthogonalLoop=1;jettySize=auto;html=1;exitX=0.5;exitY=1;exitDx=0;exitDy=0;entryX=0.5;entryY=1;entryDx=0;entryDy=0;" edge="1" parent="1" source="jkj4OKDrNk1HaaFC6fSm-23" target="jkj4OKDrNk1HaaFC6fSm-10">
          <mxGeometry relative="1" as="geometry" />
        </mxCell>
        <mxCell id="jkj4OKDrNk1HaaFC6fSm-23" value="Закрытие приложения" style="ellipse;whiteSpace=wrap;html=1;aspect=fixed;" vertex="1" parent="1">
          <mxGeometry x="690" y="350" width="80" height="80" as="geometry" />
        </mxCell>
      </root>
    </mxGraphModel>
  </diagram>
</mxfile>
